<svg width="22" height="22" viewBox="0 0 22 22" fill="none" xmlns="http://www.w3.org/2000/svg">
<path fill-rule="evenodd" clip-rule="evenodd" d="M22 11C22 17.0751 17.0751 22 11 22C4.92487 22 0 17.0751 0 11C0 4.92487 4.92487 0 11 0C17.0751 0 22 4.92487 22 11ZM9.20239 3.42414C9.30333 3.3075 9.43099 3.24341 9.58537 3.23187C9.73975 3.22032 9.87508 3.26475 9.99137 3.36514L13.7886 6.65144C13.9046 6.75185 13.9679 6.87935 13.9785 7.03393C13.9892 7.1885 13.9441 7.3241 13.8434 7.44072L13.2214 8H16V9.25H15.375V17.375C15.375 17.7187 15.2527 18.0131 15.0081 18.2581C14.7635 18.5031 14.4692 18.6254 14.125 18.625H7.875C7.53125 18.625 7.23708 18.5027 6.9925 18.2581C6.74792 18.0135 6.62542 17.7192 6.625 17.375V9.25H6V8H9.125H9.45729L7.4219 6.3341C7.30588 6.23368 7.24243 6.10619 7.23156 5.95164C7.22068 5.79708 7.26585 5.66147 7.36706 5.54482L9.20239 3.42414ZM11.5146 8H10.204L8.84376 6.82282L10.6791 4.70214L12.7887 6.52786L11.5146 8ZM8.81212 4.94091C8.76011 5.00099 8.73675 5.06892 8.74201 5.14469C8.74728 5.22046 8.77979 5.28408 8.83954 5.33555C8.89929 5.38701 8.96698 5.40998 9.0426 5.40446C9.11822 5.39894 9.18203 5.36614 9.23403 5.30605C9.28603 5.24596 9.30934 5.17811 9.30395 5.10248C9.29856 5.02685 9.26611 4.96316 9.20661 4.91141C9.1471 4.85966 9.07934 4.83663 9.00334 4.84231C8.92733 4.84799 8.86359 4.88086 8.81212 4.94091ZM7.875 17.375V9.25H14.125V17.375H7.875ZM10.375 16.125H9.125V10.5H10.375V16.125ZM12.875 16.125H11.625V10.5H12.875V16.125Z" fill="#A31BF1"/>
</svg>
